<svg width="293" height="376" viewBox="0 0 293 376" fill="none" xmlns="http://www.w3.org/2000/svg">
<g clip-path="url(#clip0_508_198)">
<path d="M232.293 194.366L146.194 234.081L60.0956 194.366L0.285156 324.057L0.850486 324.322L67.8425 324.464L111.435 375.326L112.009 375.591L146.194 301.47L180.379 375.591L180.953 375.326L224.546 324.464L291.538 324.322L292.112 324.057L232.293 194.366Z" fill="#B51435"/>
<path d="M274.11 172.557C291.176 155.491 291.176 127.834 274.11 110.768C265.913 102.57 261.31 91.458 261.31 79.8775V70.046C261.31 45.9133 241.753 26.3563 217.621 26.3563H207.789C196.2 26.3563 185.088 21.7542 176.899 13.5568C159.833 -3.50918 132.176 -3.50918 115.11 13.5568C106.913 21.7542 95.8003 26.3563 84.2198 26.3563H74.3883C50.2556 26.3563 30.6986 45.9133 30.6986 70.046V79.8775C30.6986 91.4668 26.0964 102.579 17.8991 110.768C0.833109 127.834 0.833109 155.491 17.8991 172.557C26.0964 180.754 30.6986 191.866 30.6986 203.447V213.278C30.6986 237.411 50.2556 256.968 74.3883 256.968H84.2198C95.8091 256.968 106.921 261.57 115.11 269.768C132.176 286.834 159.833 286.834 176.899 269.768C185.096 261.57 196.209 256.968 207.789 256.968H217.621C241.753 256.968 261.31 237.411 261.31 213.278V203.447C261.31 191.866 265.913 180.754 274.11 172.557Z" fill="#F5BC00"/>
<path d="M252.901 239.054L232.293 194.375L146.195 234.09L60.0962 194.375L39.3379 239.39C47.3056 250.069 60.0344 256.986 74.3797 256.986H84.2112C95.8006 256.986 106.913 261.588 115.101 269.785C132.167 286.851 159.825 286.851 176.891 269.785C185.088 261.588 196.2 256.986 207.781 256.986H217.612C232.108 256.977 244.951 249.919 252.901 239.054Z" fill="#F5BC00"/>
</g>
<defs>
<clipPath id="clip0_508_198">
<rect width="293" height="376" fill="white"/>
</clipPath>
</defs>
</svg>
